{
    "accessors" : [
        {
            "bufferView" : 0, 
            "componentType" : 5123, 
            "count" : 2880, 
            "max" : [
                1983
            ], 
            "min" : [
                0
            ], 
            "type" : "SCALAR"
        }, 
        {
            "bufferView" : 1, 
            "componentType" : 5126, 
            "count" : 1984, 
            "max" : [
                1.000000238418579, 
                1.0, 
                1.0000003576278687
            ], 
            "min" : [
                -0.9999998211860657, 
                -1.0, 
                -1.0
            ], 
            "type" : "VEC3"
        }, 
        {
            "bufferView" : 2, 
            "componentType" : 5126, 
            "count" : 1984, 
            "max" : [
                0.9904382228851318, 
                0.99513840675354, 
                0.9904382824897766
            ], 
            "min" : [
                -0.9904382228851318, 
                -0.99513840675354, 
                -0.9904384016990662
            ], 
            "type" : "VEC3"
        }, 
        {
            "bufferView" : 3, 
            "componentType" : 5126, 
            "count" : 1984, 
            "max" : [
                0.9951848387718201, 
                0.9952306747436523, 
                0.9951847791671753, 
                1.0
            ], 
            "min" : [
                -0.9951848387718201, 
                0.09801505506038666, 
                -0.9951847791671753, 
                1.0
            ], 
            "type" : "VEC4"
        }, 
        {
            "bufferView" : 4, 
            "componentType" : 5126, 
            "count" : 1984, 
            "max" : [
                1.0, 
                1.0
            ], 
            "min" : [
                0.0, 
                0.0
            ], 
            "type" : "VEC2"
        }, 
        {
            "bufferView" : 5, 
            "componentType" : 5121, 
            "count" : 6, 
            "max" : [
                3
            ], 
            "min" : [
                0
            ], 
            "type" : "SCALAR"
        }, 
        {
            "bufferView" : 6, 
            "componentType" : 5126, 
            "count" : 4, 
            "max" : [
                -0.8644441962242126, 
                0.7634062767028809, 
                0.8464208245277405
            ], 
            "min" : [
                -0.8644441962242126, 
                0.0, 
                -0.8315277099609375
            ], 
            "type" : "VEC3"
        }, 
        {
            "bufferView" : 7, 
            "componentType" : 5126, 
            "count" : 4, 
            "max" : [
                1.0, 
                0.0, 
                -0.0
            ], 
            "min" : [
                1.0, 
                0.0, 
                -0.0
            ], 
            "type" : "VEC3"
        }, 
        {
            "bufferView" : 8, 
            "componentType" : 5126, 
            "count" : 4, 
            "max" : [
                0.0, 
                0.009153282269835472, 
                -0.9999581575393677, 
                1.0
            ], 
            "min" : [
                0.0, 
                0.009153282269835472, 
                -0.9999581575393677, 
                1.0
            ], 
            "type" : "VEC4"
        }, 
        {
            "bufferView" : 9, 
            "componentType" : 5126, 
            "count" : 4, 
            "max" : [
                0.9999324679374695, 
                0.8086757361888885
            ], 
            "min" : [
                -0.010841649025678635, 
                0.12972939014434814
            ], 
            "type" : "VEC2"
        }, 
        {
            "bufferView" : 10, 
            "componentType" : 5121, 
            "count" : 102, 
            "max" : [
                53
            ], 
            "min" : [
                0
            ], 
            "type" : "SCALAR"
        }, 
        {
            "bufferView" : 11, 
            "componentType" : 5126, 
            "count" : 54, 
            "max" : [
                1.0, 
                0.7634062767028809, 
                1.0
            ], 
            "min" : [
                -1.0, 
                0.0, 
                -1.0
            ], 
            "type" : "VEC3"
        }, 
        {
            "bufferView" : 12, 
            "componentType" : 5126, 
            "count" : 54, 
            "max" : [
                1.0, 
                1.0, 
                1.0
            ], 
            "min" : [
                -1.0, 
                -0.0, 
                -1.0
            ], 
            "type" : "VEC3"
        }, 
        {
            "bufferView" : 13, 
            "componentType" : 5126, 
            "count" : 54, 
            "max" : [
                1.0, 
                0.0, 
                -0.0, 
                1.0
            ], 
            "min" : [
                1.0, 
                0.0, 
                -0.0, 
                -1.0
            ], 
            "type" : "VEC4"
        }, 
        {
            "bufferView" : 14, 
            "componentType" : 5126, 
            "count" : 54, 
            "max" : [
                0.0, 
                1.0
            ], 
            "min" : [
                0.0, 
                1.0
            ], 
            "type" : "VEC2"
        }, 
        {
            "bufferView" : 15, 
            "componentType" : 5121, 
            "count" : 6, 
            "max" : [
                3
            ], 
            "min" : [
                0
            ], 
            "type" : "SCALAR"
        }, 
        {
            "bufferView" : 16, 
            "componentType" : 5126, 
            "count" : 4, 
            "max" : [
                1.0, 
                0.7634062767028809, 
                -1.0
            ], 
            "min" : [
                -0.8644441962242126, 
                0.0, 
                -1.0
            ], 
            "type" : "VEC3"
        }, 
        {
            "bufferView" : 17, 
            "componentType" : 5126, 
            "count" : 4, 
            "max" : [
                0.0, 
                0.0, 
                -1.0
            ], 
            "min" : [
                0.0, 
                0.0, 
                -1.0
            ], 
            "type" : "VEC3"
        }, 
        {
            "bufferView" : 18, 
            "componentType" : 5126, 
            "count" : 4, 
            "max" : [
                1.0, 
                -7.451532724189747e-08, 
                -0.0, 
                1.0
            ], 
            "min" : [
                1.0, 
                -7.451532724189747e-08, 
                -0.0, 
                1.0
            ], 
            "type" : "VEC4"
        }, 
        {
            "bufferView" : 19, 
            "componentType" : 5126, 
            "count" : 4, 
            "max" : [
                0.9999359846115112, 
                0.999936019499728
            ], 
            "min" : [
                6.398050027200952e-05, 
                0.5905331969261169
            ], 
            "type" : "VEC2"
        }
    ], 
    "asset" : {
        "generator" : "Khronos Blender glTF 2.0 exporter", 
        "version" : "2.0"
    }, 
    "bufferViews" : [
        {
            "buffer" : 0, 
            "byteLength" : 5760, 
            "byteOffset" : 0, 
            "target" : 34963
        }, 
        {
            "buffer" : 0, 
            "byteLength" : 23808, 
            "byteOffset" : 5760, 
            "target" : 34962
        }, 
        {
            "buffer" : 0, 
            "byteLength" : 23808, 
            "byteOffset" : 29568, 
            "target" : 34962
        }, 
        {
            "buffer" : 0, 
            "byteLength" : 31744, 
            "byteOffset" : 53376, 
            "target" : 34962
        }, 
        {
            "buffer" : 0, 
            "byteLength" : 15872, 
            "byteOffset" : 85120, 
            "target" : 34962
        }, 
        {
            "buffer" : 0, 
            "byteLength" : 6, 
            "byteOffset" : 100992, 
            "target" : 34963
        }, 
        {
            "buffer" : 0, 
            "byteLength" : 48, 
            "byteOffset" : 101000, 
            "target" : 34962
        }, 
        {
            "buffer" : 0, 
            "byteLength" : 48, 
            "byteOffset" : 101048, 
            "target" : 34962
        }, 
        {
            "buffer" : 0, 
            "byteLength" : 64, 
            "byteOffset" : 101096, 
            "target" : 34962
        }, 
        {
            "buffer" : 0, 
            "byteLength" : 32, 
            "byteOffset" : 101160, 
            "target" : 34962
        }, 
        {
            "buffer" : 0, 
            "byteLength" : 102, 
            "byteOffset" : 101192, 
            "target" : 34963
        }, 
        {
            "buffer" : 0, 
            "byteLength" : 648, 
            "byteOffset" : 101296, 
            "target" : 34962
        }, 
        {
            "buffer" : 0, 
            "byteLength" : 648, 
            "byteOffset" : 101944, 
            "target" : 34962
        }, 
        {
            "buffer" : 0, 
            "byteLength" : 864, 
            "byteOffset" : 102592, 
            "target" : 34962
        }, 
        {
            "buffer" : 0, 
            "byteLength" : 432, 
            "byteOffset" : 103456, 
            "target" : 34962
        }, 
        {
            "buffer" : 0, 
            "byteLength" : 6, 
            "byteOffset" : 103888, 
            "target" : 34963
        }, 
        {
            "buffer" : 0, 
            "byteLength" : 48, 
            "byteOffset" : 103896, 
            "target" : 34962
        }, 
        {
            "buffer" : 0, 
            "byteLength" : 48, 
            "byteOffset" : 103944, 
            "target" : 34962
        }, 
        {
            "buffer" : 0, 
            "byteLength" : 64, 
            "byteOffset" : 103992, 
            "target" : 34962
        }, 
        {
            "buffer" : 0, 
            "byteLength" : 32, 
            "byteOffset" : 104056, 
            "target" : 34962
        }
    ], 
    "buffers" : [
        {
            "byteLength" : 104088, 
            "uri" : "4.bin"
        }
    ], 
    "extensionsUsed" : [
        "KHR_materials_unlit"
    ], 
    "images" : [
        {
            "name" : "grafiti", 
            "uri" : "grafiti.jpg"
        }
    ], 
    "materials" : [
        {
            "extensions" : {
                "KHR_materials_unlit" : {}
            }, 
            "name" : "cuadro", 
            "pbrMetallicRoughness" : {
                "baseColorFactor" : [
                    0.6400000190734865, 
                    0.6400000190734865, 
                    0.6400000190734865, 
                    1.0
                ], 
                "baseColorTexture" : {
                    "index" : 0
                }, 
                "metallicFactor" : 0.0, 
                "roughnessFactor" : 0.9
            }
        }, 
        {
            "emissiveFactor" : [
                0.4000002145767212, 
                0.4000002145767212, 
                0.4000002145767212
            ], 
            "name" : "esfera", 
            "pbrMetallicRoughness" : {
                "baseColorFactor" : [
                    0.5, 
                    0.5, 
                    0.5, 
                    1.0
                ], 
                "baseColorTexture" : {
                    "index" : 0
                }, 
                "metallicFactor" : 0.0
            }
        }, 
        {
            "emissiveFactor" : [
                0.0959999873638151, 
                0.0959999873638151, 
                0.0959999873638151
            ], 
            "name" : "lado", 
            "pbrMetallicRoughness" : {
                "baseColorFactor" : [
                    0.32000000953674324, 
                    0.32000000953674324, 
                    0.32000000953674324, 
                    1.0
                ], 
                "baseColorTexture" : {
                    "index" : 0
                }, 
                "metallicFactor" : 0.0
            }
        }, 
        {
            "emissiveFactor" : [
                0.559999998807907, 
                0.559999998807907, 
                0.559999998807907
            ], 
            "name" : "pintura", 
            "pbrMetallicRoughness" : {
                "baseColorFactor" : [
                    0.800000011920929, 
                    0.800000011920929, 
                    0.800000011920929, 
                    1.0
                ], 
                "metallicFactor" : 0.0
            }
        }
    ], 
    "meshes" : [
        {
            "name" : "Sphere.002", 
            "primitives" : [
                {
                    "attributes" : {
                        "NORMAL" : 2, 
                        "POSITION" : 1, 
                        "TANGENT" : 3, 
                        "TEXCOORD_0" : 4
                    }, 
                    "indices" : 0, 
                    "material" : 1
                }
            ]
        }, 
        {
            "name" : "Plane", 
            "primitives" : [
                {
                    "attributes" : {
                        "NORMAL" : 7, 
                        "POSITION" : 6, 
                        "TANGENT" : 8, 
                        "TEXCOORD_0" : 9
                    }, 
                    "indices" : 5, 
                    "material" : 0
                }, 
                {
                    "attributes" : {
                        "NORMAL" : 12, 
                        "POSITION" : 11, 
                        "TANGENT" : 13, 
                        "TEXCOORD_0" : 14
                    }, 
                    "indices" : 10, 
                    "material" : 3
                }, 
                {
                    "attributes" : {
                        "NORMAL" : 17, 
                        "POSITION" : 16, 
                        "TANGENT" : 18, 
                        "TEXCOORD_0" : 19
                    }, 
                    "indices" : 15, 
                    "material" : 2
                }
            ]
        }
    ], 
    "nodes" : [
        {
            "name" : "Camera", 
            "rotation" : [
                0.483536034822464, 
                0.33687159419059753, 
                -0.20870360732078552, 
                0.7804827094078064
            ], 
            "translation" : [
                7.481131553649902, 
                5.34366512298584, 
                6.5076398849487305
            ]
        }, 
        {
            "name" : "Lamp", 
            "rotation" : [
                0.16907575726509094, 
                0.7558802962303162, 
                -0.27217137813568115, 
                0.570947527885437
            ], 
            "scale" : [
                1.0, 
                1.0, 
                0.9999999403953552
            ], 
            "translation" : [
                4.076245307922363, 
                5.903861999511719, 
                -1.0054539442062378
            ]
        }, 
        {
            "mesh" : 1, 
            "name" : "Plane", 
            "scale" : [
                5.953444004058838, 
                5.953444004058838, 
                5.953444004058838
            ]
        }, 
        {
            "mesh" : 0, 
            "name" : "Sphere", 
            "scale" : [
                3.381458044052124, 
                3.381458044052124, 
                3.381458044052124
            ], 
            "translation" : [
                -0.7869381904602051, 
                -0.6991581916809082, 
                -0.6274151802062988
            ]
        }
    ], 
    "samplers" : [
        {}
    ], 
    "scene" : 0, 
    "scenes" : [
        {
            "name" : "Scene", 
            "nodes" : [
                3, 
                2, 
                1, 
                0
            ]
        }
    ], 
    "textures" : [
        {
            "sampler" : 0, 
            "source" : 0
        }, 
        {
            "sampler" : 0, 
            "source" : 0
        }, 
        {
            "sampler" : 0, 
            "source" : 0
        }
    ]
}
