{
    "accessors" : [
        {
            "bufferView" : 0, 
            "componentType" : 5123, 
            "count" : 6648, 
            "max" : [
                4215
            ], 
            "min" : [
                0
            ], 
            "type" : "SCALAR"
        }, 
        {
            "bufferView" : 1, 
            "componentType" : 5126, 
            "count" : 4216, 
            "max" : [
                5.484795093536377, 
                18.383100509643555, 
                11.049999237060547
            ], 
            "min" : [
                -7.1100311279296875, 
                -0.004735469818115234, 
                -12.046615600585938
            ], 
            "type" : "VEC3"
        }, 
        {
            "bufferView" : 2, 
            "componentType" : 5126, 
            "count" : 4216, 
            "max" : [
                1.0, 
                1.0, 
                1.0
            ], 
            "min" : [
                -1.0, 
                -1.0, 
                -1.0
            ], 
            "type" : "VEC3"
        }, 
        {
            "bufferView" : 3, 
            "componentType" : 5126, 
            "count" : 4216, 
            "max" : [
                0.9940491318702698, 
                0.9979747987817973
            ], 
            "min" : [
                0.0005165096372365952, 
                0.005440831184387207
            ], 
            "type" : "VEC2"
        }, 
        {
            "bufferView" : 4, 
            "componentType" : 5123, 
            "count" : 756, 
            "max" : [
                503
            ], 
            "min" : [
                0
            ], 
            "type" : "SCALAR"
        }, 
        {
            "bufferView" : 5, 
            "componentType" : 5126, 
            "count" : 504, 
            "max" : [
                5.3940110206604, 
                11.274686813354492, 
                8.933333396911621
            ], 
            "min" : [
                -7.015629768371582, 
                0.4702644348144531, 
                -9.818004608154297
            ], 
            "type" : "VEC3"
        }, 
        {
            "bufferView" : 6, 
            "componentType" : 5126, 
            "count" : 504, 
            "max" : [
                1.0, 
                1.0, 
                1.0
            ], 
            "min" : [
                -1.0, 
                -1.0, 
                -1.0
            ], 
            "type" : "VEC3"
        }, 
        {
            "bufferView" : 7, 
            "componentType" : 5126, 
            "count" : 504, 
            "max" : [
                1.0, 
                1.0
            ], 
            "min" : [
                0.0, 
                0.0
            ], 
            "type" : "VEC2"
        }
    ], 
    "asset" : {
        "generator" : "Khronos Blender glTF 2.0 exporter", 
        "version" : "2.0"
    }, 
    "bufferViews" : [
        {
            "buffer" : 0, 
            "byteLength" : 13296, 
            "byteOffset" : 0, 
            "target" : 34963
        }, 
        {
            "buffer" : 0, 
            "byteLength" : 50592, 
            "byteOffset" : 13296, 
            "target" : 34962
        }, 
        {
            "buffer" : 0, 
            "byteLength" : 50592, 
            "byteOffset" : 63888, 
            "target" : 34962
        }, 
        {
            "buffer" : 0, 
            "byteLength" : 33728, 
            "byteOffset" : 114480, 
            "target" : 34962
        }, 
        {
            "buffer" : 0, 
            "byteLength" : 1512, 
            "byteOffset" : 148208, 
            "target" : 34963
        }, 
        {
            "buffer" : 0, 
            "byteLength" : 6048, 
            "byteOffset" : 149720, 
            "target" : 34962
        }, 
        {
            "buffer" : 0, 
            "byteLength" : 6048, 
            "byteOffset" : 155768, 
            "target" : 34962
        }, 
        {
            "buffer" : 0, 
            "byteLength" : 4032, 
            "byteOffset" : 161816, 
            "target" : 34962
        }
    ], 
    "buffers" : [
        {
            "byteLength" : 165848, 
            "uri" : "cubo.bin"
        }
    ], 
    "images" : [
        {
            "uri" : "Hotel_Hous_AO.png"
        }, 
        {
            "uri" : "Steel_C.png"
        }, 
        {
            "uri" : "Steel_N.png"
        }, 
        {
            "uri" : "REF 1.png"
        }
    ], 
    "materials" : [
        {
            "name" : "ground", 
            "normalTexture" : {
                "index" : 2
            }, 
            "pbrMetallicRoughness" : {
                "baseColorFactor" : [
                    0.6400000190734865, 
                    0.6400000190734865, 
                    0.6400000190734865, 
                    1.0
                ], 
                "baseColorTexture" : {
                    "index" : 1
                }, 
                "metallicFactor" : 0.0
            }
        }, 
        {
            "alphaMode" : "BLEND", 
            "emissiveFactor" : [
                0.34399998700618717, 
                0.34399998700618717, 
                0.34399998700618717
            ], 
            "name" : "hotel_glas", 
            "pbrMetallicRoughness" : {
                "baseColorFactor" : [
                    0.6400000190734865, 
                    0.6400000190734865, 
                    0.6400000190734865, 
                    0.30000001192092896
                ], 
                "baseColorTexture" : {
                    "index" : 3
                }, 
                "metallicFactor" : 0.0
            }
        }
    ], 
    "meshes" : [
        {
            "name" : "Cube.001", 
            "primitives" : [
                {
                    "attributes" : {
                        "NORMAL" : 2, 
                        "POSITION" : 1, 
                        "TEXCOORD_0" : 3
                    }, 
                    "indices" : 0, 
                    "material" : 0
                }, 
                {
                    "attributes" : {
                        "NORMAL" : 6, 
                        "POSITION" : 5, 
                        "TEXCOORD_0" : 7
                    }, 
                    "indices" : 4, 
                    "material" : 1
                }
            ]
        }
    ], 
    "nodes" : [
        {
            "name" : "Hemi", 
            "rotation" : [
                -0.197649747133255, 
                -0.06408154964447021, 
                0.30379676818847656, 
                0.9298042058944702
            ], 
            "scale" : [
                1.0, 
                0.9999999403953552, 
                1.0
            ], 
            "translation" : [
                -51.742835998535156, 
                33.56003952026367, 
                23.69723129272461
            ]
        }, 
        {
            "mesh" : 0, 
            "name" : "Residential Buildings 001", 
            "translation" : [
                2.100156545639038, 
                0.40827471017837524, 
                2.237391710281372
            ]
        }
    ], 
    "samplers" : [
        {}
    ], 
    "scene" : 0, 
    "scenes" : [
        {
            "name" : "09_civilian househotel", 
            "nodes" : [
                0, 
                1
            ]
        }
    ], 
    "textures" : [
        {
            "sampler" : 0, 
            "source" : 0
        }, 
        {
            "sampler" : 0, 
            "source" : 1
        }, 
        {
            "sampler" : 0, 
            "source" : 2
        }, 
        {
            "sampler" : 0, 
            "source" : 3
        }
    ]
}
